# Blender v2.93.1 OBJ File: ''
# www.blender.org
o Куб
v -1.000000 -1.000000 1.000000
v -1.000000 1.000000 1.000000
v -1.000000 -1.000000 -1.000000
v -1.000000 1.000000 -1.000000
v 1.000000 -1.000000 1.000000
v 1.000000 1.000000 1.000000
v 1.000000 -1.000000 -1.000000
v 1.000000 1.000000 -1.000000
vt 0.552000 -0.940500
vt 0.948000 -0.940500
vt 0.948000 -0.544500
vt 0.552000 -0.544500
vt 0.527250 0.529750
vt 0.972750 0.529750
vt 0.972750 0.975250
vt 0.527250 0.975250
vt 0.527250 0.024750
vt 0.972750 0.024750
vt 0.972750 0.470250
vt 0.527250 0.470250
vt 0.552000 0.544500
vt 0.948000 0.544500
vt 0.948000 0.940500
vt 0.552000 0.940500
vt 0.032250 0.024750
vt 0.477750 0.024750
vt 0.477750 0.470250
vt 0.032250 0.470250
vt 0.047000 0.049500
vt 0.443000 0.049500
vt 0.443000 0.445500
vt 0.047000 0.445500
vn -1.0000 0.0000 0.0000
vn 0.0000 0.0000 -1.0000
vn 1.0000 0.0000 0.0000
vn 0.0000 0.0000 1.0000
vn 0.0000 -1.0000 0.0000
vn 0.0000 1.0000 0.0000
s off
f 1/1/1 2/2/1 4/3/1 3/4/1
f 3/5/2 4/6/2 8/7/2 7/8/2
f 7/9/3 8/10/3 6/11/3 5/12/3
f 5/13/4 6/14/4 2/15/4 1/16/4
f 3/17/5 7/18/5 5/19/5 1/20/5
f 8/21/6 4/22/6 2/23/6 6/24/6
